<?xml version="1.0" encoding="UTF-8"?>
<!DOCTYPE svg PUBLIC '-//W3C//DTD SVG 1.1//EN' 'http://www.w3.org/Graphics/SVG/1.1/DTD/svg11.dtd'>
<svg font-family="Liberation Serif" width="1e3" height="1e3" xmlns="http://www.w3.org/2000/svg">
 <g fill="none">
  <path d="M0 0h1000v1000H0z"/>
  <path d="m138.6 892h785.7" stroke="gray" stroke-dasharray="2,4" stroke-width=".5"/>
  <path d="m138.6 892h27m758.7 0h-27" stroke="#000"/>
  <path d="m138.6 808.2h785.7" stroke="gray" stroke-dasharray="2,4" stroke-width=".5"/>
  <path d="m138.6 808.2h27m758.7 0h-27" stroke="#000"/>
  <path d="m138.6 724.4h785.7" stroke="gray" stroke-dasharray="2,4" stroke-width=".5"/>
  <path d="m138.6 724.4h27m758.7 0h-27" stroke="#000"/>
  <path d="m138.6 640.6h785.7" stroke="gray" stroke-dasharray="2,4" stroke-width=".5"/>
  <path d="m138.6 640.6h27m758.7 0h-27" stroke="#000"/>
  <path d="m138.6 556.8h785.7" stroke="gray" stroke-dasharray="2,4" stroke-width=".5"/>
  <path d="m138.6 556.8h27m758.7 0h-27" stroke="#000"/>
  <path d="m138.6 473h785.7" stroke="gray" stroke-dasharray="2,4" stroke-width=".5"/>
  <path d="m138.6 473h27m758.7 0h-27" stroke="#000"/>
  <path d="m138.6 389.3h785.7" stroke="gray" stroke-dasharray="2,4" stroke-width=".5"/>
  <path d="m138.6 389.3h27m758.7 0h-27" stroke="#000"/>
  <path d="m138.6 305.5h785.7" stroke="gray" stroke-dasharray="2,4" stroke-width=".5"/>
  <path d="m138.6 305.5h27m758.7 0h-27" stroke="#000"/>
  <path d="m138.6 221.7h785.7" stroke="gray" stroke-dasharray="2,4" stroke-width=".5"/>
  <path d="m138.6 221.7h27m758.7 0h-27" stroke="#000"/>
  <path d="m138.6 137.9h785.7" stroke="gray" stroke-dasharray="2,4" stroke-width=".5"/>
  <path d="m138.6 137.9h27m758.7 0h-27" stroke="#000"/>
  <path d="m138.6 54.1h785.7" stroke="gray" stroke-dasharray="2,4" stroke-width=".5"/>
  <path d="m138.6 54.1h27m758.7 0h-27" stroke="#000"/>
  <path d="M138.6 892V54.1" stroke="gray" stroke-dasharray="2,4" stroke-width=".5"/>
  <path d="m138.6 892v-27m0-810.9v27" stroke="#000"/>
  <path d="M217.2 892V54.1" stroke="gray" stroke-dasharray="2,4" stroke-width=".5"/>
  <path d="m217.2 892v-27m0-810.9v27" stroke="#000"/>
  <path d="M295.7 892V54.1" stroke="gray" stroke-dasharray="2,4" stroke-width=".5"/>
  <path d="m295.7 892v-27m0-810.9v27" stroke="#000"/>
  <path d="M374.3 892V54.1" stroke="gray" stroke-dasharray="2,4" stroke-width=".5"/>
  <path d="m374.3 892v-27m0-810.9v27" stroke="#000"/>
  <path d="M452.9 892V54.1" stroke="gray" stroke-dasharray="2,4" stroke-width=".5"/>
  <path d="m452.9 892v-27m0-810.9v27" stroke="#000"/>
  <path d="M531.5 892V54.1" stroke="gray" stroke-dasharray="2,4" stroke-width=".5"/>
  <path d="m531.5 892v-27m0-810.9v27" stroke="#000"/>
  <path d="M610 892V54.1" stroke="gray" stroke-dasharray="2,4" stroke-width=".5"/>
  <path d="m610 892v-27m0-810.9v27" stroke="#000"/>
  <path d="M688.6 892V54.1" stroke="gray" stroke-dasharray="2,4" stroke-width=".5"/>
  <path d="m688.6 892v-27m0-810.9v27" stroke="#000"/>
  <path d="M767.2 892V54.1" stroke="gray" stroke-dasharray="2,4" stroke-width=".5"/>
  <path d="m767.2 892v-27m0-810.9v27" stroke="#000"/>
  <path d="M845.7 892V54.1" stroke="gray" stroke-dasharray="2,4" stroke-width=".5"/>
  <path d="m845.7 892v-27m0-810.9v27" stroke="#000"/>
  <path d="M924.3 892V54.1" stroke="gray" stroke-dasharray="2,4" stroke-width=".5"/>
  <path d="m924.3 892v-27m0-810.9v27" stroke="#000"/>
  <path d="M138.6 473h785.7M531.5 892V54.1" stroke="#000" stroke-dasharray="2,4" stroke-width="2.5"/>
  <g stroke-width="4">
   <path d="M138.6 892l.8-.8.4-.5 1.6-1.6.3-.5 2-2 .4-.5 1.6-1.6.4-.5.8-.8.3-.4.4-.4.4-.5 1.6-1.6.4-.5 1.6-1.6.4-.5.4-.4.3-.4 1.2-1.2.4-.5 1.6-1.6.4-.5 1.6-1.6.4-.5.3-.4 1.2-1.2.4-.5 2-2 .4-.5 1.2-1.2.3-.4.4-.5 1.6-1.6.4-.5 1.6-1.6.4-.5 1.2-1.2.3-.4.4-.5 2-2 .4-.5 1.6-1.6.4-.5.4-.4.3-.4.8-.8.4-.5 1.6-1.6.4-.5 1.6-1.6.4-.5.3-.4 1.6-1.6.4-.5 1.6-1.6.4-.5 1.6-1.6.3-.5 1.6-1.6.4-.5 2-2 .4-.5.8-.8.3-.4.4-.4.4-.5 1.6-1.6.4-.5 1.6-1.6.4-.5.8-.8.3-.4.4-.4.4-.5 2-2 .4-.5 1.6-1.6.4-.5.3-.4 1.2-1.2.4-.5 1.6-1.6.4-.5 1.6-1.6.3-.4.4-.5 1.6-1.6.4-.5 1.6-1.6.4-.5 1.2-1.2.3-.4.4-.5 1.6-1.6.4-.5 2-2 .4-.5.4-.4.3-.4.8-.8.4-.5 1.6-1.6.4-.5 1.6-1.6.4-.5.3-.4 1.6-1.6.4-.5 1.6-1.6.4-.5 1.6-1.6.3-.5 1.6-1.6.4-.5 1.6-1.6.4-.5 1.2-1.2.3-.4.4-.4.4-.5 1.6-1.6.4-.5 1.6-1.6.4-.5.8-.8.3-.4.4-.4.4-.5 2-2 .4-.5 1.6-1.6.4-.5.3-.4 1.2-1.2.4-.5 1.6-1.6.4-.5 1.6-1.6.3-.5 2-2 .4-.5 1.6-1.6.4-.5 1.2-1.2.3-.4.4-.5 1.6-1.6.4-.5 1.6-1.6.4-.5.8-.8.3-.4.8-.8.4-.5 1.6-1.6.4-.5 1.6-1.6.4-.5.3-.4 1.2-1.2.4-.5 2-2 .4-.5 1.6-1.6.3-.5 1.6-1.6.4-.5 1.6-1.6.4-.5 1.2-1.2.3-.4.4-.5 2-2 .4-.5 1.6-1.6.4-.5.8-.8.3-.4.4-.4.4-.5 1.6-1.6.4-.5 2-2 .4-.5.3-.4 1.2-1.2.4-.5 1.6-1.6.4-.5 1.6-1.6.3-.5 1.6-1.6.4-.5 2-2 .4-.5 1.2-1.2.3-.4.4-.5 1.6-1.6.4-.5 1.6-1.6.4-.5.8-.8.3-.4.8-.8.4-.5 1.6-1.6.4-.5 1.6-1.6.4-.5.4-.4.3-.4.8-.8.4-.5 1.6-1.6.4-.5 2-2 .3-.5 1.6-1.6.4-.5 1.6-1.6.4-.5 1.2-1.2.3-.4.4-.5 2-2 .4-.5 1.6-1.6.4-.5.8-.8.3-.4.4-.4.4-.5 1.6-1.6.4-.5 1.6-1.6.4-.5.4-.4.3-.4 1.2-1.2.4-.5 1.6-1.6.4-.5 1.6-1.6.3-.5 1.6-1.6.4-.5 1.6-1.6.4-.5 1.6-1.6.3-.4.4-.5 1.6-1.6.4-.5 1.6-1.6.4-.5.8-.8.3-.4.4-.4.4-.5 2-2 .4-.5 1.6-1.6.4-.5.4-.4.3-.4.8-.8.4-.5 1.6-1.6.4-.5 1.6-1.6.4-.5.3-.4 1.6-1.6.4-.5 1.6-1.6.4-.5 1.2-1.2.3-.4.4-.5 1.6-1.6.4-.5 2-2 .4-.5.8-.8.3-.4.4-.4.4-.5 1.6-1.6.4-.5 1.6-1.6.4-.5.4-.4.3-.4.8-.8.4-.5 2-2 .4-.5 1.6-1.6.3-.5 1.6-1.6.4-.5 1.6-1.6.4-.5 1.6-1.6.3-.4.4-.5 1.6-1.6.4-.5 1.6-1.6.4-.5.8-.8.3-.4.4-.4.4-.5 1.6-1.6.4-.5 2-2 .4-.5.4-.4.3-.4.8-.8.4-.5 1.6-1.6.4-.5 1.6-1.6.4-.5.3-.4 1.2-1.2.4-.5 2-2 .4-.5 1.2-1.2.3-.4.4-.5 1.6-1.6.4-.5 1.6-1.6.4-.5 1.2-1.2.3-.4.4-.4.4-.5 1.6-1.6.4-.5 1.6-1.6.4-.5.4-.4.3-.4.8-.8.4-.5 1.6-1.6.4-.5 2-2 .4-.5.3-.4 1.2-1.2.4-.5 1.6-1.6.4-.5 1.6-1.6.3-.5 2-2 .4-.5 1.6-1.6.4-.5.8-.8.3-.4.4-.4.4-.5 1.6-1.6.4-.5 1.6-1.6.4-.5.8-.8.3-.4.8-.8.4-.5 1.6-1.6.4-.5 1.6-1.6.4-.5.3-.4 1.2-1.2.4-.5 2-2 .4-.5 1.2-1.2.3-.4.4-.5 1.6-1.6.4-.5 1.6-1.6.4-.5 1.2-1.2.3-.4.4-.5 2-2 .4-.5 1.6-1.6.4-.5.4-.4.3-.4.8-.8.4-.5 1.6-1.6.4-.5 2-2 .4-.5.3-.4 1.2-1.2.4-.5 1.6-1.6.4-.5 1.6-1.6.3-.5 1.6-1.6.4-.5 2-2 .4-.5.8-.8.3-.4.4-.4.4-.5 1.6-1.6.4-.5 1.6-1.6.4-.5.8-.8.3-.4.4-.4.4-.5 2-2 .4-.5 1.6-1.6.4-.5.3-.4 1.2-1.2.4-.5 1.6-1.6.4-.5 1.6-1.6.3-.4.4-.5 1.6-1.6.4-.5 1.6-1.6.4-.5 1.2-1.2.3-.4.4-.5 1.6-1.6.4-.5 2-2 .4-.5.4-.4.3-.4.8-.8.4-.5 1.6-1.6.4-.5 1.6-1.6.4-.5.4-.4.3-.4 1.2-1.2.4-.5 1.6-1.6.4-.5 1.6-1.6.3-.5 1.6-1.6.4-.5 1.6-1.6.4-.5 1.2-1.2.3-.4.4-.4.4-.5 1.6-1.6.4-.5 1.6-1.6.4-.5.8-.8.3-.4.4-.4.4-.5 2-2 .4-.5 1.6-1.6.4-.5.3-.4 1.2-1.2.4-.5 1.6-1.6.4-.5 1.6-1.6.4-.5.3-.4 1.6-1.6.4-.5 1.6-1.6.4-.5 1.2-1.2.3-.4.4-.5 1.6-1.6.4-.5 2-2 .4-.5.4-.4.3-.4.8-.8.4-.5 1.6-1.6.4-.5 1.6-1.6.4-.5.4-.4.3-.4.8-.8.4-.5 2-2 .4-.5 1.6-1.6.3-.5 1.6-1.6.4-.5 1.6-1.6.4-.5 1.2-1.2.3-.4.4-.5 2-2 .4-.5 1.6-1.6.4-.5.8-.8.3-.4.4-.4.4-.5 1.6-1.6.4-.5 2-2 .4-.5.3-.4 1.2-1.2.4-.5 1.6-1.6.4-.5 1.6-1.6.4-.5.3-.4 1.2-1.2.4-.5 2-2 .4-.5 1.2-1.2.3-.4.4-.5 1.6-1.6.4-.5 1.6-1.6.4-.5.8-.8.3-.4.8-.8.4-.5 1.6-1.6.4-.5 1.6-1.6.4-.5.4-.4.3-.4.8-.8.4-.5 1.6-1.6.4-.5 2-2 .3-.5 1.6-1.6.4-.5 1.6-1.6.4-.5 1.2-1.2.3-.4.4-.5 2-2 .4-.5 1.6-1.6.4-.5.8-.8.3-.4.4-.4.4-.5 1.6-1.6.4-.5 1.6-1.6.4-.5.4-.4.3-.4 1.2-1.2.4-.5 1.6-1.6.4-.5 1.6-1.6.4-.5.3-.4 1.2-1.2.4-.5 2-2 .4-.5 1.2-1.2.3-.4.4-.5 1.6-1.6.4-.5 1.6-1.6.4-.5.8-.8.3-.4.4-.4.4-.5 2-2 .4-.5 1.6-1.6.4-.5.4-.4.3-.4.8-.8.4-.5 1.6-1.6.4-.5 1.6-1.6.4-.5.3-.4 1.6-1.6.4-.5 1.6-1.6.4-.5 1.6-1.6.3-.5 1.6-1.6.4-.5 2-2 .4-.5.8-.8.3-.4.4-.4.4-.5 1.6-1.6.4-.5 1.6-1.6.4-.5.4-.4.3-.4.8-.8.4-.5 2-2 .4-.5 1.6-1.6.4-.5.3-.4 1.2-1.2.4-.5 1.6-1.6.4-.5 1.6-1.6.3-.4.4-.5 1.6-1.6.4-.5 1.6-1.6.4-.5.8-.8.3-.4.4-.4.4-.5 1.6-1.6.4-.5 2-2 .4-.5.4-.4.3-.4.8-.8.4-.5 1.6-1.6.4-.5 1.6-1.6.4-.5.3-.4 1.6-1.6.4-.5 1.6-1.6.4-.5 1.6-1.6.3-.5 1.6-1.6.4-.5 1.6-1.6.4-.5 1.2-1.2.3-.4.4-.4.4-.5 1.6-1.6.4-.5 1.6-1.6.4-.5.4-.4.3-.4.8-.8.4-.5 1.6-1.6.4-.5 2-2 .4-.5.3-.4 1.2-1.2.4-.5 1.6-1.6.4-.5 1.6-1.6.3-.5 2-2 .4-.5 1.6-1.6.4-.5.8-.8.3-.4.4-.4.4-.5 1.6-1.6.4-.5 1.6-1.6.4-.5.8-.8.3-.4.8-.8.4-.5 1.6-1.6.4-.5 1.6-1.6.4-.5.3-.4 1.2-1.2.4-.5 2-2 .4-.5 1.6-1.6.3-.5 1.6-1.6.4-.5 1.6-1.6.4-.5 1.2-1.2.3-.4.4-.5 2-2 .4-.5 1.6-1.6.4-.5.4-.4.3-.4.8-.8.4-.5 1.6-1.6.4-.5 2-2 .4-.5.3-.4 1.2-1.2.4-.5 1.6-1.6.4-.5 1.6-1.6.3-.5 1.6-1.6.4-.5 2-2 .4-.5 1.2-1.2.3-.4.4-.5 1.6-1.6.4-.5 1.6-1.6.4-.5.8-.8.3-.4.8-.8.4-.5 1.6-1.6.4-.5 1.6-1.6.4-.5.3-.4 1.2-1.2.4-.5 1.6-1.6.4-.5 2-2 .3-.5 1.6-1.6.4-.5 1.6-1.6.4-.5 1.2-1.2.3-.4.4-.5 1.6-1.6.4-.5 2-2 .4-.5.4-.4.3-.4.8-.8.4-.5 1.6-1.6.4-.5 1.6-1.6.4-.5.4-.4.3-.4 1.2-1.2.4-.5 1.6-1.6.4-.5 1.6-1.6.3-.5 1.6-1.6.4-.5 1.6-1.6.4-.5 1.6-1.6.3-.4.4-.5 1.6-1.6.4-.5 1.6-1.6.4-.5.8-.8.3-.4.4-.4.4-.5 2-2 .4-.5 1.6-1.6.4-.5.3-.4 1.2-1.2.4-.5 1.6-1.6.4-.5 1.6-1.6.4-.5.3-.4 1.6-1.6.4-.5 1.6-1.6.4-.5 1.2-1.2.3-.4.4-.5 1.6-1.6.4-.5 2-2 .4-.5.4-.4.3-.4.8-.8.4-.5 1.6-1.6.4-.5 1.6-1.6.4-.5.4-.4.3-.4.8-.8.4-.5 2-2 .4-.5 1.6-1.6.3-.5 1.6-1.6.4-.5 1.6-1.6.4-.5 1.6-1.6.3-.4.4-.5 1.6-1.6.4-.5 1.6-1.6.4-.5.8-.8.3-.4.4-.4.4-.5 1.6-1.6.4-.5 2-2 .4-.5.3-.4 1.2-1.2.4-.5 1.6-1.6.4-.5 1.6-1.6.4-.5.3-.4 1.2-1.2.4-.5 2-2 .4-.5 1.2-1.2.3-.4.4-.5 1.6-1.6.4-.5 1.6-1.6.4-.5 1.2-1.2.3-.4.4-.4.4-.5 1.6-1.6.4-.5 1.6-1.6.4-.5.4-.4.3-.4.8-.8.4-.5 1.6-1.6.4-.5 2-2 .3-.5 1.6-1.6.4-.5.8-.8" stroke="red"/>
   <path d="M357.7 54.1l.2 2.2.4 3.7 2 18 .4 3.5.4 3.6.8 7 .3 3.5.4 3.4.4 3.5 1.6 13.6.8 6.6.4 3.4.4 3.3.4 3.2.4 3.3.4 3.2.3 3.3 1.2 9.6.4 3.1.4 3.2 1.6 12.4.4 3 .4 3.1.8 6 .3 3 .4 2.9.4 3 .4 2.9.4 3 .4 2.9.4 2.8.8 5.8 2 14 .4 2.7.3 2.8 1.6 10.8.4 2.6.4 2.7 1.6 10.4.4 2.5.4 2.6.4 2.5.3 2.5 1.2 7.5.4 2.4.4 2.5 1.6 9.6.4 2.3.4 2.4.8 4.6.3 2.3.8 4.6.4 2.2.4 2.3 2 11 .8 4.2.4 2.2.8 4.2.3 2 .8 4.2 2 10 .4 1.9.4 2 .4 1.9.4 2 .8 3.8.3 1.8.4 1.9.4 1.8.4 1.9 2 9 .4 1.7.4 1.8 1.6 6.8.3 1.7.4 1.6.4 1.7.4 1.6.4 1.7.8 3.2.4 1.5.8 3.2.8 3 .4 1.6.4 1.5.3 1.5.4 1.5.4 1.4.4 1.5.4 1.4.4 1.5 1.6 5.6.4 1.3.4 1.4.4 1.3.4 1.4.3 1.3 1.2 3.9.4 1.2.8 2.6 2.8 8.4.4 1.1.3 1.2 2.8 7.7.4 1 .4 1.1 1.6 4 .3 1 .8 2 .4.9.4 1 2.8 6.3.4.8.4.9.4.8.3.9 1.6 3.2.4.7.8 1.6.4.7.4.8 1.6 2.8.3.7.8 1.4.4.6.4.7.4.6.4.7 2.4 3.6.4.5.3.6.4.5.4.6.8 1 .4.6.8 1 .4.4 1.2 1.5.4.4.4.5.4.4.3.4.4.4.4.5.8.8.4.3 1.2 1.2.4.3.4.4 1.2.9.3.4 1.2.9.4.2.8.6.4.2.4.3.4.2.4.3.8.4.4.3.3.2.8.4.4.1 1.2.6.4.1.4.2.4.1.4.2 1.6.4.3.1 2 .5h.4l.4.1h.4l.4.1h.4l.4.1h3.9l.4-.1h.8l.4-.1h.4l.8-.2h.3l4.4-1.1.4-.2.4-.1.3-.2.4-.1.4-.2.4-.1.4-.2.4-.1 1.2-.6.4-.1 1.6-.8.3-.2.8-.4.4-.3 1.2-.6.4-.3.4-.2.4-.3.8-.4.8-.6.4-.2.3-.3.4-.3.4-.2 1.2-.9.4-.2 2.8-2.1.3-.3.4-.3.4-.4 1.2-.9.4-.4.8-.6.4-.4.8-.6.4-.4.4-.3.3-.4.4-.3.4-.4.4-.3.8-.8.4-.3.4-.4.4-.3 1.2-1.2.4-.3.8-.8.3-.4.4-.4.4-.3 4.4-4.4.3-.4 4-4 .4-.5 1.2-1.2.3-.4.8-.8.4-.5 2-2 .4-.5 1.6-1.6.3-.5 1.6-1.6.4-.5 2-2 .4-.5.8-.8.3-.4 1.2-1.2.4-.5 4-4 .3-.4 4.4-4.4.4-.3.4-.4.3-.4.8-.8.4-.3 1.2-1.2.4-.3.4-.4.4-.3.8-.8.4-.3.4-.4.4-.3.3-.4.4-.3.4-.4.8-.6.4-.4.8-.6.4-.4 1.2-.9.4-.4.4-.3.3-.3 2.8-2.1.4-.2 1.2-.9.4-.2.4-.3.3-.3.4-.2.8-.6.8-.4.4-.3.4-.2.4-.3 1.2-.6.4-.3.8-.4.3-.2 1.6-.8.4-.1 1.2-.6.4-.1.4-.2.4-.1.4-.2.4-.1.3-.2.4-.1.4-.2 4.4-1.1h.3l.8-.2h.4l.4-.1h.8l.4-.1h3.9l.4.1h.4l.4.1h.4l.4.1h.4l2 .5.3.1 1.6.4.4.2.4.1.4.2.4.1 1.2.6.4.1.8.4.3.2.4.3.8.4.4.3.4.2.4.3.4.2.8.6.4.2 1.2.9.3.4 1.2.9.4.4.4.3 1.2 1.2.4.3.8.8.4.5.4.4.3.4.4.4.4.5.4.4 1.2 1.5.4.4.8 1 .4.6.8 1 .4.6.4.5.3.6.4.5 2.4 3.6.4.7.4.6.4.7.4.6.8 1.4.3.7 1.6 2.8.4.8.4.7.8 1.6.4.7 1.6 3.2.3.9.4.8.4.9.4.8 2.8 6.3.4 1 .4.9.8 2 .3 1 1.6 4 .4 1.1.4 1 2.8 7.7.3 1.2.4 1.1 2.8 8.4.8 2.6.4 1.2 1.2 3.9.3 1.3.4 1.4.4 1.3.4 1.4.4 1.3 1.6 5.6.4 1.5.4 1.4.4 1.5.4 1.4.4 1.5.3 1.5.4 1.5.4 1.6.8 3 .8 3.2.4 1.5.8 3.2.4 1.7.4 1.6.4 1.7.4 1.6.3 1.7 1.6 6.8.4 1.8.4 1.7 2 9 .4 1.9.4 1.8.4 1.9.3 1.8.8 3.8.4 2 .4 1.9.4 2 .4 1.9 2 10 .8 4.2.3 2 .8 4.2.4 2.2.8 4.2 2 11 .4 2.3.4 2.2.8 4.6.3 2.3.8 4.6.4 2.4.4 2.3 1.6 9.6.4 2.5.4 2.4 1.2 7.5.3 2.5.4 2.5.4 2.6.4 2.5 1.6 10.4.4 2.7.4 2.6 1.6 10.8.3 2.8.4 2.7 2 14 .8 5.8.4 2.8.4 2.9.4 3 .4 2.9.4 3 .4 2.9.3 3 .8 6 .4 3.1.4 3 1.6 12.4.4 3.2.4 3.1 1.2 9.6.3 3.3.4 3.2.4 3.3.4 3.2.4 3.3.4 3.4.8 6.6 1.6 13.6.4 3.5.4 3.4.3 3.5.8 7 .4 3.6.4 3.5 2 18 .4 3.7.2 2.2" stroke="orange"/>
   <path d="M335.6 892l.3-4.8.8-11.8.4-5.8.4-5.7 1.2-16.8.4-5.4.3-5.5.8-10.6.8-10.4.4-5.1 1.2-15 .4-4.8.4-4.9 1.2-14.1.3-4.6.8-9 .8-8.8.8-8.6.8-8.4.8-8.2.4-4 .4-3.9.4-4 .4-3.8.3-3.8.4-3.8.8-7.4.8-7.2.8-7 1.2-10.2.4-3.3.4-3.2.4-3.3.3-3.1.4-3.2.4-3 .4-3.1.4-3 .4-2.9.4-3 .4-2.8.4-2.9.4-2.8 1.2-8.1.8-5.2.3-2.6 1.2-7.5.8-4.8 1.2-6.9 1.2-6.6.8-4.2.3-2 .4-2.1.4-2 .4-1.9.4-2 .4-1.9.4-1.8.4-1.9.8-3.6 1.6-6.8.3-1.6.8-3.2 1.6-6 1.2-4.2.4-1.3.4-1.4.4-1.3.4-1.2.4-1.3.3-1.2 1.2-3.6 1.2-3.3.4-1 .4-1.1 1.2-3 .8-1.8.3-1 .4-.8.8-1.8 1.2-2.4.4-.7.4-.8 2-3.5.3-.6 1.6-2.4.4-.5.4-.6 1.6-2 .4-.4.4-.5.8-.8.3-.4 1.2-1.2 1.2-.9.4-.4.4-.2 1.2-.9.8-.4.3-.3 1.2-.6.4-.1.4-.2.4-.1.4-.2.4-.1.4-.2 1.6-.4h.4l.3-.1.4-.1h.4l.4-.1h1.2l.4-.1h.8l.4.1h1.2l.3.1h.4l.4.1h.4l.8.2h.4l2.8.7.3.1.4.1.4.2.8.2.4.2.4.1.4.2.4.1.4.2.4.1.8.4.4.1.4.2.3.2.4.1 1.6.8.4.1 2.8 1.4.3.2 3.2 1.6.4.3 2 1 .3.2 1.2.6.4.3 3.6 1.8.3.2 3.2 1.6.4.1 1.6.8.3.2.4.1 1.2.6.4.1.8.4.4.1.4.2.4.1.4.2.4.1.4.2.4.1.3.2.8.2.4.2.8.2.4.2 2 .5.4.2.4.1.3.1.4.1h.4l2 .5h.4l.8.2h.4l.8.2h.3l.4.1h.8l.4.1h.8l.4.1h5.1l.4-.1h.8l.4-.1h.4l.4-.1h.4l.4-.1h.3l.8-.2h.4l2-.5h.4l.8-.2.4-.2.8-.2.3-.1.8-.2.4-.2.4-.1.4-.2.8-.2.4-.2.4-.1.8-.4.4-.1.4-.2.3-.2.4-.1 4.8-2.4.3-.3.8-.4.4-.3.8-.4.4-.3.4-.2.4-.3.4-.2.4-.3.4-.2.8-.6.4-.2.3-.3 1.2-.9.4-.2 3.2-2.4.7-.7 1.2-.9.4-.4.8-.6.4-.4.8-.6.4-.4.4-.3.4-.4.4-.3.3-.4.4-.3.4-.4.4-.3.4-.4.4-.3.8-.8.4-.3 1.2-1.2.4-.3.8-.8.3-.4.4-.4.4-.3 4.4-4.4.3-.4 4-4 .4-.5 1.2-1.2.3-.4.8-.8.4-.5 2-2 .4-.5 1.6-1.6.3-.5 1.6-1.6.4-.5 2-2 .4-.5.8-.8.3-.4 1.2-1.2.4-.5 4-4 .3-.4 4.4-4.4.4-.3.4-.4.3-.4.8-.8.4-.3 1.2-1.2.4-.3.8-.8.4-.3.4-.4.4-.3.4-.4.4-.3.3-.4.4-.3.4-.4.4-.3.4-.4.8-.6.4-.4.8-.6.4-.4 1.2-.9.7-.7 3.2-2.4.4-.2 1.2-.9.3-.3.4-.2.8-.6.4-.2.4-.3.4-.2.4-.3.4-.2.4-.3.8-.4.4-.3.8-.4.3-.3 4.8-2.4.4-.1.3-.2.4-.2.4-.1.8-.4.4-.1.4-.2.8-.2.4-.2.4-.1.4-.2.8-.2.3-.1.8-.2.4-.2.8-.2h.4l2-.5h.4l.8-.2h.3l.4-.1h.4l.4-.1h.4l.4-.1h.8l.4-.1h5.1l.4.1h.8l.4.1h.8l.4.1h.3l.8.2h.4l.8.2h.4l2 .5h.4l.4.1.3.1.4.1.4.2 2 .5.4.2.8.2.4.2.8.2.3.2.4.1.4.2.4.1.4.2.4.1.4.2.4.1.8.4.4.1 1.2.6.4.1.3.2 1.6.8.4.1 3.2 1.6.3.2 3.6 1.8.4.3 1.2.6.3.2 2 1 .4.3 3.2 1.6.3.2 2.8 1.4.4.1 1.6.8.4.1.3.2.4.2.4.1.8.4.4.1.4.2.4.1.4.2.4.1.4.2.8.2.4.2.4.1.3.1 2.8.7h.4l.8.2h.4l.4.1h.4l.3.1h1.2l.4.1h.8l.4-.1h1.2l.4-.1h.4l.4-.1.3-.1h.4l1.6-.4.4-.2.4-.1.4-.2.4-.1.4-.2.4-.1 1.2-.6.3-.3.8-.4 1.2-.9.4-.2.4-.4 1.2-.9 1.2-1.2.3-.4.8-.8.4-.5.4-.4 1.6-2 .4-.6.4-.5 1.6-2.4.3-.6 2-3.5.4-.8.4-.7 1.2-2.4.8-1.8.4-.8.3-1 .8-1.8 1.2-3 .4-1.1.4-1 1.2-3.3 1.2-3.6.3-1.2.4-1.3.4-1.2.4-1.3.4-1.4.4-1.3 1.2-4.2 1.6-6 .8-3.2.3-1.6 1.6-6.8.8-3.6.4-1.9.4-1.8.4-1.9.4-2 .4-1.9.4-2 .4-2.1.3-2 .8-4.2 1.2-6.6 1.2-6.9.8-4.8 1.2-7.5.3-2.6.8-5.2 1.2-8.1.4-2.8.4-2.9.4-2.8.4-3 .4-2.9.4-3 .4-3.1.4-3 .4-3.2.3-3.1.4-3.3.4-3.2.4-3.3 1.2-10.2.8-7 .8-7.2.8-7.4.4-3.8.3-3.8.4-3.8.4-4 .4-3.9.4-4 .8-8.2.8-8.4.8-8.6.8-8.8.8-9 .3-4.6 1.2-14.1.4-4.9.4-4.8 1.2-15 .4-5.1.8-10.4.8-10.6.3-5.5.4-5.4 1.2-16.8.4-5.7.4-5.8.8-11.8.3-4.8" stroke="#ff0"/>
   <path d="M316.8 54.1l.2 4.1.4 5.7.4 5.5.4 5.6.8 10.8.4 5.3.8 10.4 1.2 15 .4 4.9.4 4.8.3 4.7.4 4.7.4 4.6.8 9 .8 8.8.4 4.3.8 8.4.8 8.2.4 4 .4 3.9.3 3.9 1.2 11.4.4 3.6.4 3.7 1.2 10.5.8 6.8 1.2 9.9.4 3.2.3 3.1.8 6.2.4 3 .4 2.9.4 3 .4 2.8.4 2.9.8 5.6.8 5.4.8 5.2.3 2.6 1.2 7.5 1.2 7.2 1.2 6.9 1.6 8.8.3 2.1.4 2.1 1.6 8 .4 1.9.4 2 .4 1.9.4 1.8.4 1.9.8 3.6.4 1.7.4 1.8.3 1.7.4 1.7.4 1.6.4 1.7 1.6 6.4 2 7.5.4 1.4.3 1.4.4 1.5.4 1.3.8 2.8 2 6.5.4 1.2.4 1.3 1.2 3.6.3 1.2.4 1.2.4 1.1.4 1.2 2 5.5.4 1 .4 1.1.4 1 .4 1.1.4 1 .3 1 .8 2 .4.9.8 2 .8 1.8.4 1 2 4.5.3.8.8 1.8.4.8.4.9 1.6 3.2.4.9.4.8.4.7 1.2 2.4.3.7.8 1.6.8 1.4.4.8.8 1.4.4.8 2 3.5.3.7.4.6 1.2 2.1.4.6.8 1.4.4.6.4.7.4.6.4.7.8 1.2.3.7 1.2 1.8.4.7 3.6 5.4.4.5.3.6 1.2 1.8.4.5.8 1.2.4.5.8 1.2.4.5.4.6.4.5.4.6.3.5.4.6.8 1 .4.6.8 1 .4.6.8 1 .4.6 1.6 2 .3.5.4.5.4.6 2.4 3 .4.4 1.6 2 .3.5.4.5.4.4 1.2 1.5.4.4.4.5.4.4.8 1 .4.4.4.5.4.4.3.5.4.4.4.5.4.4.4.5.8.8.4.5.8.8.4.5 1.6 1.6.3.5 3.6 3.6.4.3 1.2 1.2.3.4.4.3 1.2 1.2.4.3.4.4.4.3.4.4.4.3.4.4.4.3.4.4.8.6.3.4.8.6.4.4 4 3 .3.3.8.6.4.2 1.2.9.4.2.4.3.4.2.4.3.4.2.4.3.4.2.3.3.8.4.4.3 4.4 2.2.3.2.4.2.4.1.8.4.4.1.4.2.4.1.4.2.4.1.4.2.8.2.4.2.3.1.8.2.4.2 2 .5h.4l1.6.4h.3l.4.1h.4l.8.2h.8l.4.1h.8l.4.1h4.7l.4-.1h.8l.4-.1h.4l.4-.1h.3l.8-.2h.4l1.2-.3h.4l2.8-.7.3-.1.4-.2.8-.2.4-.2.8-.2.4-.2.4-.1.4-.2.4-.1.4-.2.4-.1.4-.2.3-.2.4-.2.4-.1 4.4-2.2.3-.3.8-.4.4-.3.8-.4.4-.3.4-.2.4-.3.4-.2.8-.6.4-.2.8-.6.3-.2 1.6-1.2.4-.2 2.8-2.1.7-.7 1.2-.9.4-.4.8-.6.4-.4.8-.6.4-.4.4-.3.4-.4.4-.3.3-.4.4-.3.4-.4.4-.3.4-.4.4-.3.8-.8.4-.3 1.2-1.2.4-.3.8-.8.3-.4.4-.4.4-.3 4.4-4.4.3-.4 4-4 .4-.5 1.2-1.2.3-.4.8-.8.4-.5 2-2 .4-.5 1.6-1.6.3-.5 1.6-1.6.4-.5 2-2 .4-.5.8-.8.3-.4 1.2-1.2.4-.5 4-4 .3-.4 4.4-4.4.4-.3.4-.4.3-.4.8-.8.4-.3 1.2-1.2.4-.3.8-.8.4-.3.4-.4.4-.3.4-.4.4-.3.3-.4.4-.3.4-.4.4-.3.4-.4.8-.6.4-.4.8-.6.4-.4 1.2-.9.7-.7 2.8-2.1.4-.2 1.6-1.2.3-.2.8-.6.4-.2.8-.6.4-.2.4-.3.4-.2.4-.3.8-.4.4-.3.8-.4.3-.3 4.4-2.2.4-.1.4-.2.3-.2.4-.2.4-.1.4-.2.4-.1.4-.2.4-.1.4-.2.8-.2.4-.2.8-.2.4-.2.3-.1 2.8-.7h.4l1.2-.3h.4l.8-.2h.3l.4-.1h.4l.4-.1h.8l.4-.1h4.7l.4.1h.8l.4.1h.8l.8.2h.4l.4.1h.3l1.6.4h.4l2 .5.4.2.8.2.3.1.4.2.8.2.4.2.4.1.4.2.4.1.4.2.4.1.8.4.4.1.4.2.3.2 4.4 2.2.4.3.8.4.3.3.4.2.4.3.4.2.4.3.4.2.4.3.4.2 1.2.9.4.2.8.6.3.3 4 3 .4.4.8.6.3.4.8.6.4.4.4.3.4.4.4.3.4.4.4.3.4.4.4.3 1.2 1.2.4.3.3.4 1.2 1.2.4.3 3.6 3.6.3.5 1.6 1.6.4.5.8.8.4.5.8.8.4.5.4.4.4.5.4.4.3.5.4.4.4.5.4.4.8 1 .4.4.4.5.4.4 1.2 1.5.4.4.4.5.3.5 1.6 2 .4.4 2.4 3 .4.6.4.5.3.5 1.6 2 .4.6.8 1 .4.6.8 1 .4.6.8 1 .4.6.3.5.4.6.4.5.4.6.4.5.8 1.2.4.5.8 1.2.4.5 1.2 1.8.3.6.4.5 3.6 5.4.4.7 1.2 1.8.3.7.8 1.2.4.7.4.6.4.7.4.6.8 1.4.4.6 1.2 2.1.4.6.3.7 2 3.5.4.8.8 1.4.4.8.8 1.4.8 1.6.3.7 1.2 2.4.4.7.4.8.4.9 1.6 3.2.4.9.4.8.8 1.8.3.8 2 4.5.4 1 .8 1.8.8 2 .4.9.8 2 .3 1 .4 1 .4 1.1.4 1 .4 1.1.4 1 2 5.5.4 1.2.4 1.1.4 1.2.3 1.2 1.2 3.6.4 1.3.4 1.2 2 6.5.8 2.8.4 1.3.4 1.5.3 1.4.4 1.4 2 7.5 1.6 6.4.4 1.7.4 1.6.4 1.7.3 1.7.4 1.8.4 1.7.8 3.6.4 1.9.4 1.8.4 1.9.4 2 .4 1.9 1.6 8 .4 2.1.3 2.1 1.6 8.8 1.2 6.9 1.2 7.2 1.2 7.5.3 2.6.8 5.2.8 5.4.8 5.6.4 2.9.4 2.8.4 3 .4 2.9.4 3 .8 6.2.3 3.1.4 3.2 1.2 9.9.8 6.8 1.2 10.5.4 3.7.4 3.6 1.2 11.4.3 3.9.4 3.9.4 4 .8 8.2.8 8.4.4 4.3.8 8.8.8 9 .4 4.6.4 4.7.3 4.7.4 4.8.4 4.9 1.2 15 .8 10.4.4 5.3.8 10.8.4 5.6.4 5.5.4 5.7.2 4.1" stroke="#0f0"/>
   <path d="M288.4 892l.3-6.2.4-7.5.4-7.4.8-14.4.4-7.1.4-7 .8-13.6.4-6.7.8-13 .4-6.4.4-6.3.3-6.2.4-6.1.4-6 .4-5.9.8-11.6.4-5.7.8-11 .8-10.8.8-10.4.4-5.1.3-5 .8-9.8.4-4.8.8-9.4.4-4.6.4-4.5.8-8.8.4-4.3.8-8.4.4-4.1.4-4 .3-4 .8-7.8.4-3.8.8-7.4.8-7.2.8-7 .4-3.4.8-6.6.4-3.2.3-3.2.4-3.2.4-3 .4-3.1.4-3 1.2-8.7.4-2.7.4-2.8.8-5.4.8-5.2.4-2.5.3-2.5.4-2.4.4-2.5 1.6-9.2.8-4.4 1.2-6.3.8-4 .3-2 .8-3.8.4-1.8.4-1.9.4-1.7.4-1.8 1.2-5.1 1.6-6.4.3-1.5.4-1.5.4-1.4.4-1.5.8-2.8.4-1.3.4-1.4.4-1.3.4-1.2.4-1.3 1.6-4.8.3-1.1 1.2-3.3 2-5 1.6-3.6.4-.8.3-.9 1.2-2.4.4-.7.4-.8 2-3.5 1.2-1.8.3-.6.8-1.2 2.8-3.5.8-.8.4-.5.4-.4.4-.3.3-.4.4-.4.4-.3.4-.4 2-1.5.4-.2.4-.3.4-.2.4-.3.4-.2.3-.2 1.2-.6.4-.1.4-.2.4-.1.4-.2 2.4-.6h.4l.3-.1.4-.1h.8l.4-.1h2l.4.1h.8l.4.1h.3l.8.2h.4l2.8.7.4.2.4.1.4.2.3.1.4.2.4.1.4.2.4.1 3.6 1.8.4.3.3.2.4.2.4.3.4.2.4.3.4.2.4.3.4.2.8.6.4.2 1.2.9.3.3 3.6 2.7.4.4.8.6.7.7.4.3.4.4.4.3.4.4.4.3.4.4.4.3.4.4.4.3.8.8.4.3.8.8.3.4.4.3 1.6 1.6.4.3 2.8 2.8.3.4 5.6 5.6.3.4.8.8.4.5 3.6 3.6.4.5.3.4 5.2 5.2.3.4 4.8 4.8.4.3.4.4.3.4.8.8.4.3 1.2 1.2.4.3.8.8.4.3.8.8.4.3.3.4.4.3.4.4.4.3.4.4.4.3.4.4.8.6.4.4.8.6.4.4.8.6.3.3.4.3.4.4 3.6 2.7.4.2.4.3.3.3.8.6.4.2.8.6.4.2.4.3.4.2.4.3.4.2.4.3.8.4.3.3.8.4.4.3 4.4 2.2.3.1 1.2.6.4.1.4.2.4.1.4.2.4.1.4.2.4.1.4.2.8.2.3.1.4.2 3.6.9h.4l.8.2h.3l.8.2h.4l.4.1h.4l.4.1h.8l.4.1h5.1l.4-.1h.8l.4-.1h.4l.4-.1h.3l.8-.2h.4l.8-.2h.4l3.2-.8.3-.1.4-.2.8-.2.4-.2.8-.2.4-.2.4-.1.4-.2.4-.1.4-.2.4-.1.4-.2.3-.2.4-.2.4-.1 4.4-2.2.3-.3.8-.4.4-.3.8-.4.4-.3.4-.2.4-.3.4-.2.8-.6.4-.2.8-.6.3-.2 1.6-1.2.4-.2 2.8-2.1.7-.7 1.2-.9.4-.4.8-.6.4-.4.8-.6.4-.4.4-.3.4-.4.4-.3.3-.4.4-.3.4-.4.4-.3.4-.4.4-.3.8-.8.4-.3 1.2-1.2.4-.3.8-.8.3-.4.4-.4.4-.3 4.4-4.4.3-.4 4-4 .4-.5 1.2-1.2.3-.4.8-.8.4-.5 2-2 .4-.5 1.6-1.6.3-.5 1.6-1.6.4-.5 2-2 .4-.5.8-.8.3-.4 1.2-1.2.4-.5 4-4 .3-.4 4.4-4.4.4-.3.4-.4.3-.4.8-.8.4-.3 1.2-1.2.4-.3.8-.8.4-.3.4-.4.4-.3.4-.4.4-.3.3-.4.4-.3.4-.4.4-.3.4-.4.8-.6.4-.4.8-.6.4-.4 1.2-.9.7-.7 2.8-2.1.4-.2 1.6-1.2.3-.2.8-.6.4-.2.8-.6.4-.2.4-.3.4-.2.4-.3.8-.4.4-.3.8-.4.3-.3 4.4-2.2.4-.1.4-.2.3-.2.4-.2.4-.1.4-.2.4-.1.4-.2.4-.1.4-.2.8-.2.4-.2.8-.2.4-.2.3-.1 3.2-.8h.4l.8-.2h.4l.8-.2h.3l.4-.1h.4l.4-.1h.8l.4-.1h5.1l.4.1h.8l.4.1h.4l.4.1h.4l.8.2h.3l.8.2h.4l3.6.9.4.2.3.1.8.2.4.2.4.1.4.2.4.1.4.2.4.1.4.2.4.1 1.2.6.3.1 4.4 2.2.4.3.8.4.3.3.8.4.4.3.4.2.4.3.4.2.4.3.4.2.8.6.4.2.8.6.3.3.4.3.4.2 3.6 2.7.4.4.4.3.3.3.8.6.4.4.8.6.4.4.8.6.4.4.4.3.4.4.4.3.4.4.4.3.3.4.4.3.8.8.4.3.8.8.4.3 1.2 1.2.4.3.8.8.3.4.4.4.4.3 4.8 4.8.3.4 5.2 5.2.3.4.4.5 3.6 3.6.4.5.8.8.3.4 5.6 5.6.3.4 2.8 2.8.4.3 1.6 1.6.4.3.3.4.8.8.4.3.8.8.4.3.4.4.4.3.4.4.4.3.4.4.4.3.4.4.4.3.7.7.8.6.4.4 3.6 2.7.3.3 1.2.9.4.2.8.6.4.2.4.3.4.2.4.3.4.2.4.3.4.2.3.2.4.3 3.6 1.8.4.1.4.2.4.1.4.2.3.1.4.2.4.1.4.2 2.8.7h.4l.8.2h.3l.4.1h.8l.4.1h2l.4-.1h.8l.4-.1.3-.1h.4l2.4-.6.4-.2.4-.1.4-.2.4-.1 1.2-.6.3-.2.4-.2.4-.3.4-.2.4-.3.4-.2 2-1.5.4-.4.4-.3.4-.4.3-.4.4-.3.4-.4.4-.5.8-.8 2.8-3.5.8-1.2.3-.6 1.2-1.8 2-3.5.4-.8.4-.7 1.2-2.4.3-.9.4-.8 1.6-3.6 2-5 1.2-3.3.3-1.1 1.6-4.8.4-1.3.4-1.2.4-1.3.4-1.4.4-1.3.8-2.8.4-1.5.4-1.4.4-1.5.3-1.5 1.6-6.4 1.2-5.1.4-1.8.4-1.7.4-1.9.4-1.8.8-3.8.3-2 .8-4 1.2-6.3.8-4.4 1.6-9.2.4-2.5.4-2.4.3-2.5.4-2.5.8-5.2.8-5.4.4-2.8.4-2.7 1.2-8.7.4-3 .4-3.1.4-3 .4-3.2.3-3.2.4-3.2.8-6.6.4-3.4.8-7 .8-7.2.8-7.4.4-3.8.8-7.8.3-4 .4-4 .4-4.1.8-8.4.4-4.3.8-8.8.4-4.5.4-4.6.8-9.4.4-4.8.8-9.8.3-5 .4-5.1.8-10.4.8-10.8.8-11 .4-5.7.8-11.6.4-5.9.4-6 .4-6.1.3-6.2.4-6.3.4-6.4.8-13 .4-6.7.8-13.6.4-7 .4-7.1.8-14.4.4-7.4.4-7.5.3-6.2" stroke="#00f"/>
   <path d="M260.1 54.1l.3 7.5.4 7.6.4 7.4.4 7.3.4 7.1.4 7 .4 6.9.4 6.8.4 6.7.4 6.5.4 6.4.4 6.3.4 6.2.4 6.1.3 6 .8 11.6.4 5.6.8 11 .4 5.3.8 10.4.8 10 .8 9.6.4 4.6.3 4.6.4 4.5.4 4.4.8 8.6.8 8.2.4 4 .4 3.9.8 7.6.4 3.7.4 3.6.8 7 .3 3.4.8 6.6.4 3.2.8 6.2.8 6 .4 2.8.4 2.9 1.2 8.1.4 2.6.3 2.5.4 2.5 1.2 7.2.4 2.2.4 2.3.4 2.1.4 2.2.4 2.1 1.2 6 .4 1.9.4 1.8.3 1.8.8 3.6.4 1.7.4 1.6.4 1.7.4 1.5.4 1.6.8 3 1.2 4.2.4 1.3.3 1.3.8 2.6.8 2.4.4 1.1.4 1.2.4 1.1.4 1 .4 1.1.8 2 .4.9.4 1 .3.9.8 1.8 2 4 2 3.5.8 1.2.3.6.8 1.2.4.5.4.6 1.6 2 .4.4.4.5.8.8.4.5.3.4.4.3.8.8.4.3.4.4 2.4 1.8.4.2.4.3.4.2.3.3.8.4.4.3 2 1 .4.1.8.4.4.1.4.2.3.1.4.2.4.1.4.2 1.6.4.4.2 2 .5.3.1.8.2h.4l2 .5h.4l1.2.3h.4l.4.1.3.1h.4l.8.2h.4l.8.2h.4l.8.2h.4l1.2.3h.3l.8.2h.4l1.2.3h.4l1.6.4h.4l.4.1.3.1 5.6 1.4.3.1.4.2 1.2.3.4.2.8.2.4.2.8.2.4.2.4.1.4.2.3.1.4.2.4.1.8.4.4.1 1.2.6.4.1 2 1 .3.2 3.2 1.6.4.3 1.2.6.4.3.3.2.4.3.4.2.4.3.4.2.4.3.4.2.4.3.4.2.8.6.4.2.8.6.3.3.4.2 5.2 3.9.3.4 1.2.9.4.4.8.6.4.4.8.6.4.4.4.3.4.4.4.3.3.4.4.3.8.8.4.3.4.4.4.3.8.8.4.3 1.2 1.2.4.3.3.4 1.6 1.6.4.3 3.6 3.6.3.4 2.8 2.8.4.5 2 2 .3.4.4.4.4.5 2 2 .4.5 1.6 1.6.4.5.4.4.3.4.8.8.4.5 1.6 1.6.4.5 2 2 .3.5 2 2 .4.5 2.8 2.8.3.4 7.5 7.5.4.3 1.2 1.2.4.3.8.8.4.3 1.1 1.1.4.3.4.4.4.3.4.4.4.3.4.4.8.6.4.4.8.6.4.4.4.3.3.3.8.6.4.4 3.2 2.4.4.2.4.3.3.3.4.3.4.2.8.6.4.2.8.6.4.2.4.3.4.2.4.3.8.4.3.3.8.4.4.3 4.4 2.2.3.1 1.2.6.4.1.4.2.4.1.4.2.4.1.4.2.8.2.4.2.4.1.3.1.4.2 3.6.9h.4l.8.2h.3l.8.2h.4l.4.1h.4l.4.1h.8l.4.1h5.1l.4-.1h.8l.4-.1h.4l.4-.1h.3l.8-.2h.4l.8-.2h.4l3.2-.8.3-.1.4-.2.8-.2.4-.2.8-.2.4-.2.4-.1.4-.2.4-.1.4-.2.4-.1.4-.2.3-.2.4-.2.4-.1 4.4-2.2.3-.3.8-.4.4-.3.8-.4.4-.3.4-.2.4-.3.4-.2.8-.6.4-.2.8-.6.3-.2 1.6-1.2.4-.2 2.8-2.1.7-.7 1.2-.9.4-.4.8-.6.4-.4.8-.6.4-.4.4-.3.4-.4.4-.3.3-.4.4-.3.4-.4.4-.3.4-.4.4-.3.8-.8.4-.3 1.2-1.2.4-.3.8-.8.3-.4.4-.4.4-.3 4.4-4.4.3-.4 4-4 .4-.5 1.2-1.2.3-.4.8-.8.4-.5 2-2 .4-.5 1.6-1.6.3-.5 1.6-1.6.4-.5 2-2 .4-.5.8-.8.3-.4 1.2-1.2.4-.5 4-4 .3-.4 4.4-4.4.4-.3.4-.4.3-.4.8-.8.4-.3 1.2-1.2.4-.3.8-.8.4-.3.4-.4.4-.3.4-.4.4-.3.3-.4.4-.3.4-.4.4-.3.4-.4.8-.6.4-.4.8-.6.4-.4 1.2-.9.7-.7 2.8-2.1.4-.2 1.6-1.2.3-.2.8-.6.4-.2.8-.6.4-.2.4-.3.4-.2.4-.3.8-.4.4-.3.8-.4.3-.3 4.4-2.2.4-.1.4-.2.3-.2.4-.2.4-.1.4-.2.4-.1.4-.2.4-.1.4-.2.8-.2.4-.2.8-.2.4-.2.3-.1 3.2-.8h.4l.8-.2h.4l.8-.2h.3l.4-.1h.4l.4-.1h.8l.4-.1h5.1l.4.1h.8l.4.1h.4l.4.1h.4l.8.2h.3l.8.2h.4l3.6.9.4.2.3.1.4.1.4.2.8.2.4.2.4.1.4.2.4.1.4.2.4.1 1.2.6.3.1 4.4 2.2.4.3.8.4.3.3.8.4.4.3.4.2.4.3.4.2.8.6.4.2.8.6.4.2.4.3.3.3.4.3.4.2 3.2 2.4.4.4.8.6.3.3.4.3.4.4.8.6.4.4.8.6.4.4.4.3.4.4.4.3.4.4.4.3 1.1 1.1.4.3.8.8.4.3 1.2 1.2.4.3 7.5 7.5.3.4 2.8 2.8.4.5 2 2 .3.5 2 2 .4.5 1.6 1.6.4.5.8.8.3.4.4.4.4.5 1.6 1.6.4.5 2 2 .4.5.4.4.3.4 2 2 .4.5 2.8 2.8.3.4 3.6 3.6.4.3 1.6 1.6.3.4.4.3 1.2 1.2.4.3.8.8.4.3.4.4.4.3.8.8.4.3.3.4.4.3.4.4.4.3.4.4.8.6.4.4.8.6.4.4 1.2.9.3.4 5.2 3.9.4.2.3.3.8.6.4.2.8.6.4.2.4.3.4.2.4.3.4.2.4.3.4.2.4.3.3.2.4.3 1.2.6.4.3 3.2 1.6.3.2 2 1 .4.1 1.2.6.4.1.8.4.4.1.4.2.3.1.4.2.4.1.4.2.8.2.4.2.8.2.4.2 1.2.3.4.2.3.1 5.6 1.4.3.1.4.1h.4l1.6.4h.4l1.2.3h.4l.8.2h.3l1.2.3h.4l.8.2h.4l.8.2h.4l.8.2h.4l.3.1.4.1h.4l1.2.3h.4l2 .5h.4l.8.2.3.1 2 .5.4.2 1.6.4.4.2.4.1.4.2.3.1.4.2.4.1.8.4.4.1 2 1 .4.3.8.4.3.3.4.2.4.3.4.2 2.4 1.8.4.4.4.3.8.8.4.3.3.4.4.5.8.8.4.5.4.4 1.6 2 .4.6.4.5.8 1.2.3.6.8 1.2 2 3.5 2 4 .8 1.8.3.9.4 1 .4.9.8 2 .4 1.1.4 1 .4 1.1.4 1.2.4 1.1.8 2.4.8 2.6.3 1.3.4 1.3 1.2 4.2.8 3 .4 1.6.4 1.5.4 1.7.4 1.6.4 1.7.8 3.6.3 1.8.4 1.8.4 1.9 1.2 6 .4 2.1.4 2.2.4 2.1.4 2.3.4 2.2 1.2 7.2.4 2.5.3 2.5.4 2.6 1.2 8.1.4 2.9.4 2.8.8 6 .8 6.2.4 3.2.8 6.6.3 3.4.8 7 .4 3.6.4 3.7.8 7.6.4 3.9.4 4 .8 8.2.8 8.6.4 4.4.4 4.5.3 4.6.4 4.6.8 9.6.8 10 .8 10.4.4 5.3.8 11 .4 5.6.8 11.6.3 6 .4 6.1.4 6.2.4 6.3.4 6.4.4 6.5.4 6.7.4 6.8.4 6.9.4 7 .4 7.1.4 7.3.4 7.4.4 7.6.3 7.5" stroke="indigo"/>
   <path d="M235.3 892l.4-6.5.4-7.4.4-7.2.8-14 .3-6.8.4-6.7.4-6.6.4-6.5.4-6.4.4-6.3.8-12.2.8-11.8.8-11.4.8-11 .4-5.4.3-5.3.4-5.1.4-5.2.4-5 .4-4.9.8-9.6.4-4.7.4-4.6.8-9 1.2-12.9.3-4.1.4-4.1.8-8 .4-3.9.8-7.6.4-3.6.4-3.7.4-3.6.4-3.5 1.2-10.2.3-3.2.4-3.3.4-3.1.4-3.2.4-3 .4-3.1.4-2.9.4-3 .4-2.8.4-2.9.4-2.8.8-5.4.8-5.2.3-2.6 1.2-7.5.4-2.4.4-2.3.4-2.4.4-2.3 1.6-8.8.8-4.2.3-2 .4-2.1.4-2 2-9.5.8-3.6.4-1.7.4-1.8.8-3.4.3-1.6.4-1.7.4-1.6.4-1.5.8-3.2.8-3 .4-1.4.4-1.5 2-7 .3-1.3 1.6-5.2 2.4-7.2.4-1.1.4-1.2.4-1.1.3-1.1.4-1.1.4-1 .8-2.2 2.4-6 .4-.9.4-1 .8-1.8.3-.9 1.6-3.6.4-.8.4-.9 2.8-5.6.3-.8.4-.7.4-.8.8-1.4.4-.8 2-3.5.4-.6.4-.7.4-.6.3-.7.4-.6.4-.7 3.6-5.4.4-.5.4-.6.4-.5.3-.6.4-.5.4-.6 3.6-4.5.4-.4.4-.5.3-.5.4-.4.4-.5.8-.8.4-.5 3.6-3.6.3-.4.4-.3.8-.8.4-.3.4-.4.8-.6.4-.4.8-.6.4-.4.8-.6.3-.3 1.2-.9.4-.2 1.2-.9.4-.2.4-.3.4-.2.4-.3.4-.2.4-.3.3-.2.8-.4.4-.3 2.8-1.4.4-.1 1.2-.6.3-.1.4-.2.4-.1.4-.2.8-.2.4-.2 1.2-.3.4-.2 1.2-.3.3-.1.4-.1h.4l1.2-.3h.4l.8-.2h.4l.4-.1h.8l.4-.1h.7l.4-.1h3.2l.4.1h.8l.4.1h.7l.4.1h.4l.4.1h.4l.8.2h.4l2 .5.3.1 2 .5.4.2 1.2.3.4.2.4.1.4.2.4.1.4.2.3.1.8.4.4.1 4 2 .3.2.8.4.4.3 1.2.6.4.3.4.2.4.3.4.2.4.3.4.2.4.3.3.3.4.2.8.6.4.2 2.4 1.8.4.2.4.3.4.4.4.3.3.3 1.6 1.2.4.4 1.2.9.4.4.8.6.4.4.4.3.3.4.4.3.4.4.4.3.4.4.4.3.8.8.4.3.4.4.4.3 3.1 3.1.4.3 3.6 3.6.3.4 4.8 4.8.4.5.3.4 2 2 .4.5 2 2 .4.5.8.8.3.4.4.4.4.5 1.6 1.6.4.5 2 2 .4.5.3.4 2 2 .4.5 2.8 2.8.3.4 5.6 5.6.3.4.4.3 1.2 1.2.4.3 1.2 1.2.4.3.8.8.4.3 1.1 1.1.4.3.4.4.4.3.4.4.4.3.4.4.8.6.4.4.8.6.4.4.4.3.3.3.8.6.4.4 3.2 2.4.4.2.4.3.3.3.4.3.4.2.8.6.4.2.8.6.4.2.4.3.4.2.4.3.8.4.3.3.8.4.4.3 4.4 2.2.3.1 1.2.6.4.1.4.2.4.1.4.2.4.1.4.2.8.2.4.2.4.1.3.1.4.2 3.6.9h.4l.8.2h.3l.8.2h.4l.4.1h.4l.4.1h.8l.4.1h5.1l.4-.1h.8l.4-.1h.4l.4-.1h.3l.8-.2h.4l.8-.2h.4l3.2-.8.3-.1.4-.2.8-.2.4-.2.8-.2.4-.2.4-.1.4-.2.4-.1.4-.2.4-.1.4-.2.3-.2.4-.2.4-.1 4.4-2.2.3-.3.8-.4.4-.3.8-.4.4-.3.4-.2.4-.3.4-.2.8-.6.4-.2.8-.6.3-.2 1.6-1.2.4-.2 2.8-2.1.7-.7 1.2-.9.4-.4.8-.6.4-.4.8-.6.4-.4.4-.3.4-.4.4-.3.3-.4.4-.3.4-.4.4-.3.4-.4.4-.3.8-.8.4-.3 1.2-1.2.4-.3.8-.8.3-.4.4-.4.4-.3 4.4-4.4.3-.4 4-4 .4-.5 1.2-1.2.3-.4.8-.8.4-.5 2-2 .4-.5 1.6-1.6.3-.5 1.6-1.6.4-.5 2-2 .4-.5.8-.8.3-.4 1.2-1.2.4-.5 4-4 .3-.4 4.4-4.4.4-.3.4-.4.3-.4.8-.8.4-.3 1.2-1.2.4-.3.8-.8.4-.3.4-.4.4-.3.4-.4.4-.3.3-.4.4-.3.4-.4.4-.3.4-.4.8-.6.4-.4.8-.6.4-.4 1.2-.9.7-.7 2.8-2.1.4-.2 1.6-1.2.3-.2.8-.6.4-.2.8-.6.4-.2.4-.3.4-.2.4-.3.8-.4.4-.3.8-.4.3-.3 4.4-2.2.4-.1.4-.2.3-.2.4-.2.4-.1.4-.2.4-.1.4-.2.4-.1.4-.2.8-.2.4-.2.8-.2.4-.2.3-.1 3.2-.8h.4l.8-.2h.4l.8-.2h.3l.4-.1h.4l.4-.1h.8l.4-.1h5.1l.4.1h.8l.4.1h.4l.4.1h.4l.8.2h.3l.8.2h.4l3.6.9.4.2.3.1.4.1.4.2.8.2.4.2.4.1.4.2.4.1.4.2.4.1 1.2.6.3.1 4.4 2.2.4.3.8.4.3.3.8.4.4.3.4.2.4.3.4.2.8.6.4.2.8.6.4.2.4.3.3.3.4.3.4.2 3.2 2.4.4.4.8.6.3.3.4.3.4.4.8.6.4.4.8.6.4.4.4.3.4.4.4.3.4.4.4.3 1.1 1.1.4.3.8.8.4.3 1.2 1.2.4.3 1.2 1.2.4.3.3.4 5.6 5.6.3.4 2.8 2.8.4.5 2 2 .3.4.4.5 2 2 .4.5 1.6 1.6.4.5.4.4.3.4.8.8.4.5 2 2 .4.5 2 2 .3.4.4.5 4.8 4.8.3.4 3.6 3.6.4.3 3.1 3.1.4.3.4.4.4.3.8.8.4.3.4.4.4.3.4.4.4.3.3.4.4.3.4.4.8.6.4.4 1.2.9.4.4 1.6 1.2.3.3.4.3.4.4.4.3.4.2 2.4 1.8.4.2.8.6.4.2.3.3.4.3.4.2.4.3.4.2.4.3.4.2.4.3 1.2.6.4.3.8.4.3.2 4 2 .4.1.8.4.3.1.4.2.4.1.4.2.4.1.4.2 1.2.3.4.2 2 .5.3.1 2 .5h.4l.8.2h.4l.4.1h.4l.4.1h.7l.4.1h.8l.4.1h3.2l.4-.1h.7l.4-.1h.8l.4-.1h.4l.8-.2h.4l1.2-.3h.4l.4-.1.3-.1 1.2-.3.4-.2 1.2-.3.4-.2.8-.2.4-.2.4-.1.4-.2.3-.1 1.2-.6.4-.1 2.8-1.4.4-.3.8-.4.3-.2.4-.3.4-.2.4-.3.4-.2.4-.3.4-.2 1.2-.9.4-.2 1.2-.9.3-.3.8-.6.4-.4.8-.6.4-.4.8-.6.4-.4.4-.3.8-.8.4-.3.3-.4 3.6-3.6.4-.5.8-.8.4-.5.4-.4.3-.5.4-.5.4-.4 3.6-4.5.4-.6.4-.5.3-.6.4-.5.4-.6.4-.5 3.6-5.4.4-.7.4-.6.3-.7.4-.6.4-.7.4-.6 2-3.5.4-.8.8-1.4.4-.8.4-.7.3-.8 2.8-5.6.4-.9.4-.8 1.6-3.6.3-.9.8-1.8.4-1 .4-.9 2.4-6 .8-2.2.4-1 .4-1.1.3-1.1.4-1.1.4-1.2.4-1.1 2.4-7.2 1.6-5.2.3-1.3 2-7 .4-1.5.4-1.4.8-3 .8-3.2.4-1.5.4-1.6.4-1.7.3-1.6.8-3.4.4-1.8.4-1.7.8-3.6 2-9.5.4-2 .4-2.1.3-2 .8-4.2 1.6-8.8.4-2.3.4-2.4.4-2.3.4-2.4 1.2-7.5.3-2.6.8-5.2.8-5.4.4-2.8.4-2.9.4-2.8.4-3 .4-2.9.4-3.1.4-3 .4-3.2.4-3.1.4-3.3.3-3.2 1.2-10.2.4-3.5.4-3.6.4-3.7.4-3.6.8-7.6.4-3.9.8-8 .4-4.1.3-4.1 1.2-12.9.8-9 .4-4.6.4-4.7.8-9.6.4-4.9.4-5 .4-5.2.4-5.1.3-5.3.4-5.4.8-11 .8-11.4.8-11.8.8-12.2.4-6.3.4-6.4.4-6.5.4-6.6.4-6.7.3-6.8.8-14 .4-7.2.4-7.4.4-6.5" stroke="violet"/>
   <path d="M138.6 450.3l.4.3.4.4.4.3.4.4.4.3 2.3 2.3.4.3 1.6 1.6.4.3 1.6 1.6.3.4 5.2 5.2.3.4 1.2 1.2.4.5 2.4 2.4.4.5 1.2 1.2.3.4.4.4.4.5 1.6 1.6.4.5 1.6 1.6.4.5.4.4.3.4 1.2 1.2.4.5 2 2 .4.5 1.6 1.6.3.4 5.2 5.2.3.4 2 2 .4.3 1.2 1.2.4.3 2.3 2.3.4.3.4.4.4.3.4.4.4.3.4.4.4.3.4.4.4.3.4.4.4.3.7.7.8.6.4.4 1.6 1.2.4.4 2 1.5.3.3.8.6.4.2 1.2.9.4.2 1.2.9.4.2.4.3.4.2.4.3.3.2.4.3.8.4.4.3.8.4.4.3 2.4 1.2.3.2 1.6.8.4.1 1.2.6.4.1.4.2.4.1.4.2.4.1.3.2.4.1.4.2 1.2.3.4.2 3.2.8.3.1h.4l.8.2h.4l.8.2h.4l.4.1h.4l.4.1h.8l.4.1h5.1l.4-.1h.7l.4-.1h.4l.4-.1h.4l.8-.2h.4l1.2-.3h.4l.8-.2.3-.1 2-.5.4-.2.8-.2.4-.2.8-.2.4-.2.4-.1.3-.2.4-.1.4-.2.4-.1 1.2-.6.4-.1 2.8-1.4.3-.2.8-.4.4-.3 1.2-.6.4-.3.8-.4.4-.3.4-.2.4-.3.4-.2.3-.3.4-.3.4-.2.8-.6.4-.2 1.6-1.2.4-.2 1.2-.9.3-.3 1.2-.9.4-.4 1.6-1.2.4-.4.8-.6.4-.4.8-.6.3-.4.4-.3.4-.4.4-.3.4-.4.4-.3.4-.4.4-.3.4-.4.4-.3.8-.8.4-.3.4-.4.3-.4.4-.4.4-.3 1.6-1.6.4-.3 2.4-2.4.3-.4 5.6-5.6.3-.4.4-.5 2.4-2.4.4-.5 2-2 .3-.5 1.6-1.6.4-.5 1.6-1.6.4-.5 1.6-1.6.3-.4.4-.5 2.4-2.4.4-.5 2-2 .3-.4 5.2-5.2.3-.4 1.2-1.2.4-.3 1.2-1.2.4-.3 1.2-1.2.4-.3 1.5-1.5.4-.3.4-.4.4-.3.4-.4.4-.3.4-.4.4-.3.4-.4.8-.6.4-.4.4-.3.7-.7 1.6-1.2.4-.4 3.2-2.4.3-.2 1.2-.9.4-.2.8-.6.4-.2.8-.6.4-.2.4-.3.4-.2.4-.3.3-.2.4-.2.4-.3.8-.4.4-.3 3.2-1.6.3-.2.8-.4.4-.1 1.2-.6.4-.1.4-.2.4-.1.4-.2.4-.1.4-.2.4-.1.4-.2.3-.1.8-.2.4-.2 3.6-.9h.4l.3-.1.4-.1h.4l.8-.2h.4l.4-.1h.4l.4-.1h.8l.4-.1h5.1l.4.1h.8l.4.1h.3l.4.1h.4l.8.2h.4l1.2.3h.4l1.6.4.3.1 1.2.3.4.2.8.2.4.2.8.2.4.2.4.1.4.2.4.1.4.2.3.1 1.2.6.4.1 3.6 1.8.3.2.4.3 1.2.6.4.3.8.4.4.3.4.2.4.3.4.2.8.6.3.2.8.6.4.2 1.6 1.2.4.2 2.4 1.8.7.7 1.6 1.2.4.4.8.6.4.4.8.6.4.4.4.3.3.4.4.3.4.4.4.3.4.4.4.3.4.4.4.3.8.8.4.3 3.1 3.1.4.3 3.6 3.6.3.4 4.8 4.8.4.5.3.4 2 2 .4.5 2 2 .4.5.8.8.3.4.4.4.4.5 1.6 1.6.4.5 2 2 .4.5.3.4 2 2 .4.5 2.8 2.8.3.4 5.6 5.6.3.4.4.3 1.2 1.2.4.3 1.2 1.2.4.3.8.8.4.3 1.1 1.1.4.3.4.4.4.3.4.4.4.3.4.4.8.6.4.4.8.6.4.4.4.3.3.3.8.6.4.4 3.2 2.4.4.2.4.3.3.3.4.3.4.2.8.6.4.2.8.6.4.2.4.3.4.2.4.3.8.4.3.3.8.4.4.3 4.4 2.2.3.1 1.2.6.4.1.4.2.4.1.4.2.4.1.4.2.8.2.4.2.4.1.3.1.4.2 3.6.9h.4l.8.2h.3l.8.2h.4l.4.1h.4l.4.1h.8l.4.1h5.1l.4-.1h.8l.4-.1h.4l.4-.1h.3l.8-.2h.4l.8-.2h.4l3.2-.8.3-.1.4-.2.8-.2.4-.2.8-.2.4-.2.4-.1.4-.2.4-.1.4-.2.4-.1.4-.2.3-.2.4-.2.4-.1 4.4-2.2.3-.3.8-.4.4-.3.8-.4.4-.3.4-.2.4-.3.4-.2.8-.6.4-.2.8-.6.3-.2 1.6-1.2.4-.2 2.8-2.1.7-.7 1.2-.9.4-.4.8-.6.4-.4.8-.6.4-.4.4-.3.4-.4.4-.3.3-.4.4-.3.4-.4.4-.3.4-.4.4-.3.8-.8.4-.3 1.2-1.2.4-.3.8-.8.3-.4.4-.4.4-.3 4.4-4.4.3-.4 4-4 .4-.5 1.2-1.2.3-.4.8-.8.4-.5 2-2 .4-.5 1.6-1.6.3-.5 1.6-1.6.4-.5 2-2 .4-.5.8-.8.3-.4 1.2-1.2.4-.5 4-4 .3-.4 4.4-4.4.4-.3.4-.4.3-.4.8-.8.4-.3 1.2-1.2.4-.3.8-.8.4-.3.4-.4.4-.3.4-.4.4-.3.3-.4.4-.3.4-.4.4-.3.4-.4.8-.6.4-.4.8-.6.4-.4 1.2-.9.7-.7 2.8-2.1.4-.2 1.6-1.2.3-.2.8-.6.4-.2.8-.6.4-.2.4-.3.4-.2.4-.3.8-.4.4-.3.8-.4.3-.3 4.4-2.2.4-.1.4-.2.3-.2.4-.2.4-.1.4-.2.4-.1.4-.2.4-.1.4-.2.8-.2.4-.2.8-.2.4-.2.3-.1 3.2-.8h.4l.8-.2h.4l.8-.2h.3l.4-.1h.4l.4-.1h.8l.4-.1h5.1l.4.1h.8l.4.1h.4l.4.1h.4l.8.2h.3l.8.2h.4l3.6.9.4.2.3.1.4.1.4.2.8.2.4.2.4.1.4.2.4.1.4.2.4.1 1.2.6.3.1 4.4 2.2.4.3.8.4.3.3.8.4.4.3.4.2.4.3.4.2.8.6.4.2.8.6.4.2.4.3.3.3.4.3.4.2 3.2 2.4.4.4.8.6.3.3.4.3.4.4.8.6.4.4.8.6.4.4.4.3.4.4.4.3.4.4.4.3 1.1 1.1.4.3.8.8.4.3 1.2 1.2.4.3 1.2 1.2.4.3.3.4 5.6 5.6.3.4 2.8 2.8.4.5 2 2 .3.4.4.5 2 2 .4.5 1.6 1.6.4.5.4.4.3.4.8.8.4.5 2 2 .4.5 2 2 .3.4.4.5 4.8 4.8.3.4 3.6 3.6.4.3 3.1 3.1.4.3.8.8.4.3.4.4.4.3.4.4.4.3.4.4.4.3.3.4.4.3.4.4.8.6.4.4.8.6.4.4 1.6 1.2.7.7 2.4 1.8.4.2 1.6 1.2.4.2.8.6.3.2.8.6.4.2.4.3.4.2.4.3.8.4.4.3 1.2.6.4.3.3.2 3.6 1.8.4.1 1.2.6.3.1.4.2.4.1.4.2.4.1.4.2.8.2.4.2.8.2.4.2 1.2.3.3.1 1.6.4h.4l1.2.3h.4l.8.2h.4l.4.1h.3l.4.1h.8l.4.1h5.1l.4-.1h.8l.4-.1h.4l.4-.1h.4l.8-.2h.4l.4-.1.3-.1h.4l3.6-.9.4-.2.8-.2.3-.1.4-.2.4-.1.4-.2.4-.1.4-.2.4-.1.4-.2.4-.1 1.2-.6.4-.1.8-.4.3-.2 3.2-1.6.4-.3.8-.4.4-.3.4-.2.3-.2.4-.3.4-.2.4-.3.4-.2.8-.6.4-.2.8-.6.4-.2 1.2-.9.3-.2 3.2-2.4.4-.4 1.6-1.2.7-.7.4-.3.4-.4.8-.6.4-.4.4-.3.4-.4.4-.3.4-.4.4-.3.4-.4.4-.3 1.5-1.5.4-.3 1.2-1.2.4-.3 1.2-1.2.4-.3 1.2-1.2.3-.4 5.2-5.2.3-.4 2-2 .4-.5 2.4-2.4.4-.5.3-.4 1.6-1.6.4-.5 1.6-1.6.4-.5 1.6-1.6.3-.5 2-2 .4-.5 2.4-2.4.4-.5.3-.4 5.6-5.6.3-.4 2.4-2.4.4-.3 1.6-1.6.4-.3.4-.4.3-.4.4-.4.4-.3.8-.8.4-.3.4-.4.4-.3.4-.4.4-.3.4-.4.4-.3.4-.4.4-.3.3-.4.8-.6.4-.4.8-.6.4-.4 1.6-1.2.4-.4 1.2-.9.3-.3 1.2-.9.4-.2 1.6-1.2.4-.2.8-.6.4-.2.4-.3.3-.3.4-.2.4-.3.4-.2.4-.3.8-.4.4-.3 1.2-.6.4-.3.8-.4.3-.2 2.8-1.4.4-.1 1.2-.6.4-.1.4-.2.4-.1.3-.2.4-.1.4-.2.8-.2.4-.2.8-.2.4-.2 2-.5.3-.1.8-.2h.4l1.2-.3h.4l.8-.2h.4l.4-.1h.4l.4-.1h.7l.4-.1h5.1l.4.1h.8l.4.1h.4l.4.1h.4l.8.2h.4l.8.2h.4l.3.1 3.2.8.4.2 1.2.3.4.2.4.1.3.2.4.1.4.2.4.1.4.2.4.1 1.2.6.4.1 1.6.8.3.2 2.4 1.2.4.3.8.4.4.3.8.4.4.3.3.2.4.3.4.2.4.3.4.2 1.2.9.4.2 1.2.9.4.2.8.6.3.3 2 1.5.4.4 1.6 1.2.4.4.8.6.7.7.4.3.4.4.4.3.4.4.4.3.4.4.4.3.4.4.4.3.4.4.4.3 2.3 2.3.4.3 1.2 1.2.4.3 2 2 .3.4 5.2 5.2.3.4 1.6 1.6.4.5 2 2 .4.5 1.2 1.2.3.4.4.4.4.5 1.6 1.6.4.5 1.6 1.6.4.5.4.4.3.4 1.2 1.2.4.5 2.4 2.4.4.5 1.2 1.2.3.4 5.2 5.2.3.4 1.6 1.6.4.3 1.6 1.6.4.3 2.3 2.3.4.3.4.4.4.3.4.4.4.3" stroke="#000"/>
  </g>
 </g>
 <g font-size="36">
  <g text-anchor="end">
   <text x="113.4" y="903.7">−10</text>
   <text x="113.4" y="819.9">−8</text>
   <text x="113.4" y="736.1">−6</text>
   <text x="113.4" y="652.3">−4</text>
   <text x="113.4" y="568.5">−2</text>
   <text x="113.4" y="484.7">0</text>
   <text x="113.4" y="401">2</text>
   <text x="113.4" y="317.2">4</text>
   <text x="113.4" y="233.4">6</text>
   <text x="113.4" y="149.6">8</text>
   <text x="113.4" y="65.8">10</text>
  </g>
  <g text-anchor="middle">
   <text x="138.6" y="957.7">−10</text>
   <text x="217.2" y="957.7">−8</text>
   <text x="295.7" y="957.7">−6</text>
   <text x="374.3" y="957.7">−4</text>
   <text x="452.9" y="957.7">−2</text>
   <text x="531.5" y="957.7">0</text>
   <text x="610" y="957.7">2</text>
   <text x="688.6" y="957.7">4</text>
   <text x="767.2" y="957.7">6</text>
   <text x="845.7" y="957.7">8</text>
   <text x="924.3" y="957.7">10</text>
  </g>
 </g>
</svg>
